<svg width="312" height="219" viewBox="0 0 312 219" fill="none" xmlns="http://www.w3.org/2000/svg">
<mask id="mask0_1_844" style="mask-type:alpha" maskUnits="userSpaceOnUse" x="0" y="0" width="312" height="219">
<path d="M187.034 20.487C251.408 53.497 269.791 31.802 298.744 75.783C327.697 119.765 307.969 201.958 247.133 215.434C186.296 228.91 175.389 195.729 92.825 210.123C10.262 224.517 -31.618 98.924 30.118 46.553C91.855 -5.81703 122.661 -12.523 187.034 20.487Z" fill="white"/>
</mask>
<g mask="url(#mask0_1_844)">
<path d="M187.034 20.487C251.408 53.497 269.791 31.802 298.744 75.783C327.697 119.765 307.969 201.958 247.133 215.434C186.296 228.91 175.389 195.729 92.825 210.123C10.262 224.517 -31.618 98.924 30.118 46.553C91.855 -5.81703 122.661 -12.523 187.034 20.487Z" fill="#F2EBF9"/>
<path d="M122.66 -44.6799C127.369 16.4771 149.281 53.4991 188.396 66.3851C227.511 79.2721 280.66 60.7611 347.842 10.8531" stroke="white" stroke-width="1.32"/>
<path d="M145.806 -44.6799C156.231 27.2191 132.817 64.3651 75.5661 66.7601C-10.3109 70.3521 51.7331 5.13507 81.0301 31.1331C110.327 57.1301 107.942 113.423 62.2301 152.005C31.7551 177.727 -2.96691 190.588 -41.9359 190.588M322.769 152.825C195.858 144.625 95.1901 189.817 20.7651 288.401" stroke="white" stroke-width="1.32"/>
<path d="M-10.3099 151.88C72.9371 174.195 126.606 219.702 150.696 288.401" stroke="white" stroke-width="1.32"/>
<path d="M322.769 72.954C266.599 129.024 227.39 145.326 205.141 121.86C171.767 86.662 235.514 58.944 244.917 90.402C254.32 121.86 204.05 146.826 137.121 157.93C92.502 165.333 39.7041 197.717 -21.2729 255.083M198.702 288.401C190.447 239.393 201.243 213.105 231.089 209.538C260.936 205.971 294.122 219.115 330.647 248.969M240.263 15.825C262.878 15.825 281.211 -9.89502 281.211 -41.624C281.211 -73.352 262.878 -99.072 240.263 -99.072C217.649 -99.072 199.316 -73.352 199.316 -41.624C199.316 -9.89602 217.649 15.825 240.263 15.825Z" stroke="white" stroke-width="1.32"/>
<path d="M322.769 109.387C269.599 161.224 246.782 224.07 254.32 297.925" stroke="white" stroke-width="1.32"/>
<path d="M-10.3099 82.345C121.014 108.879 224.066 180.739 298.844 297.925" stroke="white" stroke-width="1.32"/>
<path d="M37.9301 -44.6799C-2.20993 -36.4659 -17.0499 -19.3379 -6.59193 6.70507C9.09507 45.7691 66.9041 119.64 -10.3099 132.452M-10.3099 220.141C20.9461 266.73 54.0671 278.378 89.0511 255.083C141.528 220.141 159.321 212.887 181.192 220.141C195.773 224.976 209.033 247.73 220.97 288.401" stroke="white" stroke-width="1.32"/>
<path d="M313.792 161.358H0.0721436V223.838H313.792V161.358Z" fill="#F2EBF9"/>
<path d="M-27.2079 161.021H355.592" stroke="black" stroke-width="1.294" stroke-linecap="round" stroke-linejoin="round"/>
</g>
<mask id="mask1_1_844" style="mask-type:alpha" maskUnits="userSpaceOnUse" x="51" y="58" width="33" height="42">
<path d="M51.2 66.3841L68.921 58.4971L83.659 91.5911L65.939 99.4781L51.2 66.3841Z" fill="white"/>
</mask>
<g mask="url(#mask1_1_844)">
<path d="M51.2 66.3841L68.921 58.4961L83.659 91.5901L65.938 99.4781L51.2 66.3841Z" fill="white" stroke="black" stroke-width="1.384" stroke-linecap="round" stroke-linejoin="round"/>
<path d="M76.2988 72.0351C87.3528 67.1141 92.6179 54.8251 88.0569 44.5851C83.4968 34.3451 70.8388 30.0321 59.7838 34.9531C48.7298 39.8731 43.4648 52.1631 48.0258 62.4031C52.5858 72.6431 65.2438 76.9551 76.2988 72.0351Z" fill="black"/>
</g>
<path d="M171.98 131.79L172.422 156.795L215.41 156.053L214.969 131.048L171.98 131.79Z" fill="white"/>
<path fill-rule="evenodd" clip-rule="evenodd" d="M199.433 142.615L212.13 142.886V144.31L208.867 144.309C207.955 144.309 207.052 144.488 206.209 144.837C205.366 145.185 204.6 145.697 203.955 146.342C203.31 146.987 202.798 147.752 202.449 148.595C202.1 149.438 201.92 150.341 201.92 151.253V151.27C201.925 153.118 202.663 154.89 203.972 156.195C205.281 157.5 207.055 158.233 208.903 158.233L213.712 158.234C220.214 158.235 225.485 152.967 225.483 146.467V142.49C225.481 133.793 218.427 126.742 209.727 126.741H209.726L164.56 126.732" fill="white"/>
<path d="M199.433 142.615L212.13 142.886V144.31L208.867 144.309C207.955 144.309 207.052 144.488 206.209 144.837C205.366 145.185 204.6 145.697 203.955 146.342C203.31 146.987 202.798 147.752 202.449 148.595C202.1 149.438 201.92 150.341 201.92 151.253V151.27C201.925 153.118 202.663 154.89 203.972 156.195C205.281 157.5 207.055 158.233 208.903 158.233L213.712 158.234C220.214 158.235 225.485 152.967 225.483 146.467V142.49C225.481 133.793 218.427 126.742 209.727 126.741H209.726L164.56 126.732" stroke="black" stroke-width="1.384" stroke-linecap="round" stroke-linejoin="round"/>
<path fill-rule="evenodd" clip-rule="evenodd" d="M199.433 142.615L212.13 142.886V144.31L208.867 144.309C207.955 144.309 207.052 144.488 206.209 144.837C205.366 145.185 204.6 145.697 203.955 146.342C203.31 146.987 202.798 147.752 202.449 148.595C202.1 149.438 201.92 150.341 201.92 151.253V151.27C201.925 153.118 202.663 154.89 203.972 156.195C205.281 157.5 207.055 158.233 208.903 158.233L213.712 158.234C220.214 158.235 225.485 152.967 225.483 146.467V142.49C225.481 133.793 218.427 126.742 209.727 126.741H209.726L164.56 126.732" fill="white"/>
<path d="M199.433 142.615L212.13 142.886V144.31L208.867 144.309C207.955 144.309 207.052 144.488 206.209 144.837C205.366 145.185 204.6 145.697 203.955 146.342C203.31 146.987 202.798 147.752 202.449 148.595C202.1 149.438 201.92 150.341 201.92 151.253V151.27C201.925 153.118 202.663 154.89 203.972 156.195C205.281 157.5 207.055 158.233 208.903 158.233L213.712 158.234C220.214 158.235 225.485 152.967 225.483 146.467V142.49C225.481 133.793 218.427 126.742 209.727 126.741H209.726L164.56 126.732" stroke="black" stroke-width="1.384" stroke-linecap="round" stroke-linejoin="round"/>
<path fill-rule="evenodd" clip-rule="evenodd" d="M166.692 163.182L201.934 163.188C203.746 163.189 205.487 162.478 206.78 161.208C208.073 159.938 208.815 158.211 208.847 156.399C208.877 154.628 208.203 152.918 206.972 151.645C205.742 150.371 204.056 149.639 202.285 149.608L202.168 149.607L185.693 149.604" fill="white"/>
<path d="M166.692 163.182L201.934 163.188C203.746 163.189 205.487 162.478 206.78 161.208C208.073 159.938 208.815 158.211 208.847 156.399C208.877 154.628 208.203 152.918 206.972 151.645C205.742 150.371 204.056 149.639 202.285 149.608L202.168 149.607L185.693 149.604" stroke="black" stroke-width="1.32" stroke-linecap="round" stroke-linejoin="round"/>
<path fill-rule="evenodd" clip-rule="evenodd" d="M66.6439 83.635C71.5756 81.2646 77.1282 80.506 82.515 81.4668C87.9018 82.4275 92.8498 85.0589 96.6579 88.9881L127.825 121.133L176.218 120.298L177.006 164.922L103.882 166.184C97.0914 166.3 90.4228 164.373 84.7406 160.653C79.0585 156.933 74.625 151.592 72.0149 145.322L56.9399 109.128C52.8879 99.3981 57.1499 88.2 66.6439 83.635Z" fill="#EAEBED" stroke="black" stroke-width="1.32" stroke-linejoin="round"/>
<path d="M135.306 121.053L113.03 122.01L98.8831 101.244" stroke="black" stroke-width="1.32" stroke-linecap="round" stroke-linejoin="round"/>
<path d="M70.144 82.335C75.2273 81.2012 80.5386 81.698 85.3235 83.7549C90.1083 85.8118 94.1233 89.3241 96.798 93.793L98.565 96.743L102.539 97.398C102.645 100.121 103.337 102.789 104.568 105.221C105.799 107.652 107.54 109.789 109.672 111.486L122.344 121.573" stroke="black" stroke-width="1.32" stroke-linecap="round" stroke-linejoin="round"/>
<path fill-rule="evenodd" clip-rule="evenodd" d="M162.401 116.142L177.168 117.452L178.052 167.575L161.088 169.176L162.401 116.142Z" fill="#EAEBED" stroke="black" stroke-width="1.32" stroke-linejoin="round"/>
<path fill-rule="evenodd" clip-rule="evenodd" d="M178.527 126.865L179.97 162.846L177.976 162.88L177.342 126.885L178.527 126.865ZM44.904 28.7041C53.992 24.6591 64.642 28.7501 68.692 37.8421C68.79 38.0621 68.884 38.2861 68.973 38.5101L70.914 43.3881C74.616 52.6881 70.319 63.2501 61.178 67.3191C52.142 71.3411 41.553 67.2731 37.528 58.2331L35.405 53.4681C31.19 44.0021 35.442 32.9151 44.904 28.7041Z" fill="black"/>
<path fill-rule="evenodd" clip-rule="evenodd" d="M70.689 39.8881L75.291 50.2221C78.78 58.0561 75.26 67.2311 67.43 70.7171C59.6 74.2021 50.425 70.6771 46.936 62.8441L42.334 52.5091C38.845 44.6761 42.364 35.5001 50.194 32.0151C58.025 28.5301 67.2 32.0551 70.689 39.8881Z" fill="white" stroke="black" stroke-width="1.412" stroke-linecap="round" stroke-linejoin="round"/>
<path fill-rule="evenodd" clip-rule="evenodd" d="M71.752 45.604L74.544 47.067L76.057 48.555L74.809 52.469L71.769 49.042L71.752 45.604Z" fill="white"/>
<path d="M72.073 60.9051C70.7937 61.4738 69.3409 61.5112 68.034 61.009C66.7271 60.5069 65.6732 59.5062 65.104 58.2271" stroke="black" stroke-width="1.412" stroke-linecap="round" stroke-linejoin="round"/>
<path fill-rule="evenodd" clip-rule="evenodd" d="M42.91 33.61C38.026 33.19 35.647 35.841 35.771 41.56C35.869 46.088 37.719 54.125 47.052 63.24C47.439 63.619 46.8 56.09 46.967 55.455C48.229 50.635 48.509 45.732 47.808 40.744C47.015 35.097 45.382 32.72 42.91 33.61Z" fill="black"/>
<path fill-rule="evenodd" clip-rule="evenodd" d="M37.4169 33.3089C35.0009 33.0539 29.1499 34.4309 29.3369 43.0089C29.4349 47.5379 32.6869 58.4559 42.6169 64.8169C42.9959 65.0589 40.3649 57.5399 40.5319 56.9039C41.7939 52.0849 42.0739 47.1809 41.3729 42.1929C40.1829 33.7229 39.8329 33.5629 37.4169 33.3089Z" fill="black"/>
<path fill-rule="evenodd" clip-rule="evenodd" d="M46.7401 54.4519L44.9801 54.9319C44.4294 55.0822 43.9206 55.3569 43.4928 55.7349C43.065 56.1128 42.7297 56.5839 42.5126 57.1118C42.2956 57.6397 42.2026 58.2105 42.2408 58.78C42.279 59.3495 42.4474 59.9027 42.7331 60.3969C43.4463 61.632 44.5157 62.623 45.8015 63.2402C47.0872 63.8574 48.5294 64.072 49.9391 63.8559L50.8661 63.7139" fill="white"/>
<path d="M46.7401 54.4519L44.9801 54.9319C44.4294 55.0822 43.9206 55.3569 43.4928 55.7349C43.065 56.1128 42.7297 56.5839 42.5126 57.1118C42.2956 57.6397 42.2026 58.2105 42.2408 58.78C42.279 59.3495 42.4474 59.9027 42.7331 60.3969C43.4463 61.632 44.5157 62.623 45.8015 63.2402C47.0872 63.8574 48.5294 64.072 49.9391 63.8559L50.8661 63.7139M46.0481 58.0979L47.3321 60.9819M46.8551 59.9109L45.0221 59.4229" stroke="black" stroke-width="1.412" stroke-linecap="round" stroke-linejoin="round"/>
<path fill-rule="evenodd" clip-rule="evenodd" d="M73.2461 45.814L78.1461 50.24L75.4651 53.11" fill="white"/>
<path d="M73.2461 45.814L78.1461 50.24L75.4651 53.11" stroke="black" stroke-width="1.412" stroke-linecap="round" stroke-linejoin="round"/>
<path d="M66.9569 49.7201C68.4999 49.0331 69.4309 47.7571 69.0359 46.8701C68.6409 45.9831 67.0699 45.8211 65.5269 46.5081C63.9839 47.1951 63.0529 48.4711 63.4479 49.3581C63.8429 50.2441 65.4139 50.4071 66.9569 49.7201Z" stroke="black" stroke-width="0.941" stroke-linecap="round" stroke-linejoin="round"/>
<path d="M66.9569 49.72C67.8829 49.307 68.3129 48.254 67.9179 47.368C67.5239 46.481 66.4529 46.096 65.5269 46.508C64.6009 46.92 64.1709 47.973 64.5659 48.86C64.9599 49.747 66.0309 50.131 66.9569 49.72Z" fill="black"/>
<path fill-rule="evenodd" clip-rule="evenodd" d="M43.178 32.7039C53.03 25.2139 61.543 22.0009 68.718 23.0639C79.479 24.6579 78.598 42.6289 57.979 46.0609C44.233 48.3489 39.299 43.8969 43.178 32.7039Z" fill="black"/>
<path fill-rule="evenodd" clip-rule="evenodd" d="M35.731 38.46C34.922 33.703 46.282 18.604 55.294 18.567C61.302 18.542 62.258 24.16 58.162 35.421C43.747 40.617 36.271 41.63 35.732 38.459L35.731 38.46ZM13.552 39.271L15.942 38.257C20.874 36.163 26.57 38.464 28.664 43.397L78.403 160.575L54.725 161.098L8.41303 51.993C6.31903 47.06 8.62003 41.365 13.553 39.271H13.552Z" fill="black"/>
<path d="M246.196 96.3179V160.653M289.531 96.3179V160.653M241.512 99.9529H293.859" stroke="#436FFF" stroke-width="1.384" stroke-linecap="round" stroke-linejoin="round"/>
<path d="M253.976 99.9199V133.815" stroke="#436FFF" stroke-width="0.97" stroke-linecap="round" stroke-linejoin="round"/>
<path d="M253.976 141.963C254.528 141.963 255.075 141.854 255.585 141.643C256.095 141.431 256.559 141.122 256.949 140.731C257.34 140.341 257.649 139.877 257.861 139.367C258.072 138.857 258.181 138.31 258.181 137.757C258.18 137.205 258.072 136.658 257.86 136.148C257.649 135.638 257.339 135.175 256.949 134.784C256.558 134.394 256.094 134.084 255.584 133.873C255.074 133.662 254.527 133.553 253.975 133.553C252.86 133.553 251.79 133.996 251.002 134.785C250.213 135.574 249.77 136.643 249.771 137.758C249.771 138.874 250.214 139.943 251.002 140.732C251.791 141.52 252.861 141.963 253.976 141.963Z" fill="#436FFF"/>
<path d="M263.031 99.9199V133.815" stroke="#436FFF" stroke-width="0.97" stroke-linecap="round" stroke-linejoin="round"/>
<path d="M263.031 141.963C263.583 141.963 264.13 141.854 264.64 141.643C265.15 141.431 265.614 141.122 266.004 140.731C266.395 140.341 266.704 139.877 266.916 139.367C267.127 138.857 267.236 138.31 267.235 137.757C267.235 137.205 267.127 136.658 266.915 136.148C266.704 135.638 266.394 135.175 266.003 134.784C265.613 134.394 265.149 134.084 264.639 133.873C264.129 133.662 263.582 133.553 263.03 133.553C261.915 133.553 260.845 133.996 260.057 134.785C259.268 135.574 258.825 136.643 258.825 137.758C258.826 138.874 259.269 139.943 260.057 140.732C260.846 141.52 261.916 141.963 263.031 141.963Z" fill="#436FFF"/>
<path d="M272.086 99.9199V133.815" stroke="#436FFF" stroke-width="0.97" stroke-linecap="round" stroke-linejoin="round"/>
<path d="M272.086 141.963C272.638 141.963 273.185 141.854 273.695 141.643C274.205 141.431 274.669 141.122 275.059 140.731C275.45 140.341 275.759 139.877 275.97 139.367C276.182 138.857 276.29 138.31 276.29 137.757C276.29 137.205 276.181 136.658 275.97 136.148C275.759 135.638 275.449 135.175 275.058 134.784C274.668 134.394 274.204 134.084 273.694 133.873C273.184 133.662 272.637 133.553 272.085 133.553C270.97 133.553 269.9 133.996 269.112 134.785C268.323 135.574 267.88 136.643 267.88 137.758C267.881 138.874 268.324 139.943 269.112 140.732C269.901 141.52 270.971 141.963 272.086 141.963Z" fill="#436FFF"/>
<path d="M281.141 99.9199V133.815" stroke="#436FFF" stroke-width="0.97" stroke-linecap="round" stroke-linejoin="round"/>
<path d="M281.141 141.963C282.256 141.963 283.326 141.52 284.114 140.731C284.903 139.943 285.346 138.873 285.346 137.758C285.346 136.643 284.903 135.573 284.114 134.785C283.326 133.996 282.256 133.553 281.141 133.553C280.026 133.553 278.956 133.996 278.168 134.785C277.379 135.573 276.936 136.643 276.936 137.758C276.936 138.873 277.379 139.943 278.168 140.731C278.956 141.52 280.026 141.963 281.141 141.963Z" fill="#436FFF"/>
</svg>
